<svg xmlns="http://www.w3.org/2000/svg" width="19" height="23" viewBox="0 0 19 23"><path d="M.5,23a.5.5,0,0,1-.5-.5V3.917a.5.5,0,0,1,.5-.5H15.713a.5.5,0,0,1,.5.5V22.5a.5.5,0,0,1-.5.5Zm.259-.788H15.58V4.206H.76Zm4-1.446a.328.328,0,1,1,0-.657H11.7a.329.329,0,1,1,0,.657Zm11.6-1.051v-.742h2.009l0-18.315L3.606.687V3.276H2.8l-.015-.007V.5a.5.5,0,0,1,.5-.5H18.5a.5.5,0,0,1,.5.5V19.214a.5.5,0,0,1-.5.5Zm-13.5-.394a.328.328,0,1,1,0-.657H13.605a.328.328,0,1,1,0,.657Zm0-1.84a.328.328,0,1,1,0-.657H13.605a.328.328,0,1,1,0,.657Zm0-1.84a.328.328,0,1,1,0-.657H13.605a.328.328,0,1,1,0,.657Zm0-1.84a.329.329,0,0,1,0-.657H13.605a.329.329,0,1,1,0,.657Zm0-1.841a.328.328,0,1,1,0-.657H13.605a.328.328,0,1,1,0,.657Zm0-1.84a.329.329,0,0,1,0-.657H13.605a.329.329,0,1,1,0,.657ZM9.575,6.571a.328.328,0,0,1,0-.657h4.03a.328.328,0,1,1,0,.657Z" fill="#b59472"/></svg>