<svg xmlns="http://www.w3.org/2000/svg" width="20" height="20" viewBox="0 0 20 20"><path d="M7.985,19.8a9.943,9.943,0,0,1-3.576-1.5,10.029,10.029,0,0,1-3.623-4.4A9.948,9.948,0,0,1,.2,12.015a10.1,10.1,0,0,1,0-4.031,9.945,9.945,0,0,1,1.5-3.576A10.029,10.029,0,0,1,6.108.786,9.948,9.948,0,0,1,7.985.2a10.1,10.1,0,0,1,4.031,0,9.945,9.945,0,0,1,3.576,1.5,10.03,10.03,0,0,1,3.623,4.4A9.948,9.948,0,0,1,19.8,7.985a10.1,10.1,0,0,1,0,4.031,9.943,9.943,0,0,1-1.5,3.576,10.03,10.03,0,0,1-4.4,3.623,9.948,9.948,0,0,1-1.877.583,10.1,10.1,0,0,1-4.031,0ZM1.261,10.045A8.694,8.694,0,1,0,9.955,1.351,8.7,8.7,0,0,0,1.261,10.045Zm7.748,3.829a.9.9,0,1,1,.9.9A.9.9,0,0,1,9.009,13.874Zm.008-2.943a2.883,2.883,0,0,1,.818-2.49c.962-.716,1.081-.746,1.113-1.307A.976.976,0,0,0,9.72,6.2a1.186,1.186,0,0,0-.873,1.035.713.713,0,0,1-.711.653.681.681,0,0,1-.69-.653A2.532,2.532,0,0,1,8.952,4.9c1.286-.5,3.371.209,3.418,2.054s-1.458,2.321-1.657,2.7a3.246,3.246,0,0,0-.089,1.278.82.82,0,0,1-.789.782A.762.762,0,0,1,9.017,10.931Z" fill="#b59472"/></svg>