<svg xmlns="http://www.w3.org/2000/svg" width="45" height="59" viewBox="0 0 45 59">
  <path id="Объединение_10" data-name="Объединение 10" d="M2,59a2,2,0,0,1-2-2V2A2,2,0,0,1,2,0H43a2,2,0,0,1,2,2V57a2,2,0,0,1-2,2ZM2,3V56a1,1,0,0,0,1,1H42a1,1,0,0,0,1-1V3a1,1,0,0,0-1-1H3A1,1,0,0,0,2,3ZM31.135,53.27a1.135,1.135,0,1,1,0-2.27h4.73a1.135,1.135,0,1,1,0,2.27Zm-20,0a1.135,1.135,0,1,1,0-2.27h16.73a1.135,1.135,0,1,1,0,2.27Zm2.272-4.6V42.566H10.7a.7.7,0,1,1,0-1.409h6.814a.7.7,0,0,1,0,1.409h-2.7v6.109a.705.705,0,0,1-1.41,0Zm17.618,0V41.86a.7.7,0,0,1,1.409,0v2.557l2.92-2.921a.707.707,0,0,1,1,1l-2.774,2.775,2.745,2.744a.7.7,0,0,1-1,1l-2.892-2.892v2.557a.7.7,0,0,1-1.409,0Zm-7.215,0V42.565h-2.7a.7.7,0,1,1,0-1.409h6.814a.7.7,0,0,1,0,1.409h-2.7v6.109a.705.705,0,0,1-1.41,0Zm-13.025-8.9a1.134,1.134,0,1,1,0-2.268H35.216a1.134,1.134,0,0,1,0,2.268Zm6.476-3.618a14.185,14.185,0,0,1-5.351-4.791,28.266,28.266,0,0,1-3.021-8.39H37.113v.007a25.365,25.365,0,0,1-3.054,8.383,14.658,14.658,0,0,1-5.753,4.791Zm-4.937-7.43c.906,2.233,3.872,4.211,3.9,4.231l-.007-.007a10.759,10.759,0,0,1-1.989-4.587,17.185,17.185,0,0,1,.241-3.92H11.509A11.207,11.207,0,0,0,12.322,28.722Zm5.289-13.161c.236-4.595,2.831-4.58,3.561-7.788s-.691-4.708-.691-4.708,3.31,1.63,3.31,4.838-2.863,4.842-3.31,7.995a6.9,6.9,0,0,0,1.634,5.348S17.375,20.155,17.611,15.561Zm5.264.857c.236-3.864,2.36-3.844,3.09-6.542s-.524-3.842-.524-3.842,3.012,1.352,3.012,4.05-2.564,3.942-3.012,6.593a5.545,5.545,0,0,0,1.493,4.543S22.639,20.281,22.875,16.418Z" fill="#b59472"/>
</svg>
