<svg xmlns="http://www.w3.org/2000/svg" width="24" height="21.237" viewBox="0 0 24 21.237">
  <path id="Объединение_202" data-name="Объединение 202" d="M1.472,21.237v0a1.977,1.977,0,0,1-1.119-.408A1.705,1.705,0,0,1,0,19.749V1.418H0A2.264,2.264,0,0,1,.481.587a2.718,2.718,0,0,1,.9-.564L20.347,0a1.149,1.149,0,0,1,.647.455,3.056,3.056,0,0,1,.227.682h.021s0,.649,0,1.688h1.844a1.964,1.964,0,0,1,.686.438A1.111,1.111,0,0,1,24,3.9l-.014,15.846h0a2.674,2.674,0,0,1-.542.949,2.449,2.449,0,0,1-.918.539Zm0-19.727V19.749H22.515L22.53,4.182h-1.3c-.011,4.65-.025,13.025.008,13.333.047.427.691.305.732.674s-.1.775-.568.8a1.447,1.447,0,0,1-1.263-.465,1.628,1.628,0,0,1-.373-1.012V1.424ZM12.239,18.073a.744.744,0,1,1,0-1.489h5.408a.744.744,0,1,1,0,1.489Zm-8.276,0a.744.744,0,1,1,0-1.489H9.371a.744.744,0,1,1,0,1.489Zm8.276-2.7a.744.744,0,0,1,0-1.489h5.408a.744.744,0,1,1,0,1.489Zm-8.276,0a.744.744,0,1,1,0-1.489H9.371a.744.744,0,1,1,0,1.489Zm8.276-2.7a.744.744,0,0,1,0-1.489h5.408a.744.744,0,1,1,0,1.489Zm-8.1,0a.926.926,0,0,1-.92-.931V6.721a.926.926,0,0,1,.92-.931H9.2a.926.926,0,0,1,.92.931v5.025a.926.926,0,0,1-.92.931Zm.46-1.21H8.92V7.094H4.6Zm7.641-1.489a.745.745,0,0,1,0-1.49h5.408a.745.745,0,0,1,0,1.49Zm0-2.7a.744.744,0,0,1,0-1.489h5.408a.744.744,0,1,1,0,1.489Zm-8.276-2.7a.744.744,0,0,1,0-1.489h13.5a.744.744,0,1,1,0,1.489Z" transform="translate(0)" fill="#b59472"/>
</svg>
