<svg xmlns="http://www.w3.org/2000/svg" width="26.903" height="24.079" viewBox="0 0 26.903 24.079">
  <path id="Объединение_188" data-name="Объединение 188" d="M9.142,24.08a6.007,6.007,0,0,1-6-6V14.2l-.053-.079.053-.051V6a6.007,6.007,0,0,1,6-6h14.85a6.007,6.007,0,0,1,6,6V18.08a6.006,6.006,0,0,1-6,6ZM5.273,18.056a4,4,0,0,0,4,4H23.755a4.007,4.007,0,0,0,3.844-2.9,3.856,3.856,0,0,0-2.512-1.652c-1.593-.174-4.046,1.3-4.046,1.3s-7.07-8.14-8.977-8.186c-1.443-.035-5.1,3.1-6.791,4.626Zm19.814-3.013a5.019,5.019,0,0,1,2.668,1.514V5.811a4,4,0,0,0-4-4H9.273a4,4,0,0,0-4,4v6.355C7.387,10.368,10.5,8,12.064,8.113c2.511.186,9.488,8.167,9.488,8.167a6.392,6.392,0,0,1,3.221-1.254A2.754,2.754,0,0,1,25.087,15.043Zm-4.555-3.854a4.057,4.057,0,1,1,1.576.319A4.024,4.024,0,0,1,20.532,11.189Zm-.022-3.73a1.6,1.6,0,1,0,1.6-1.6A1.6,1.6,0,0,0,20.509,7.458Z" transform="translate(-3.089)" fill="#b59472"/>
</svg>
