<svg xmlns="http://www.w3.org/2000/svg" width="48" height="48" viewBox="0 0 48 48">
  <g id="Сгруппировать_30" data-name="Сгруппировать 30" transform="translate(-369 -5)">
    <g id="Сгруппировать_29" data-name="Сгруппировать 29">
      <path id="Объединение_187" data-name="Объединение 187" d="M5.512,34.953V32.043a.551.551,0,0,1,1.1,0v2.911a.551.551,0,1,1-1.1,0Zm20.946-.14V29.1a4.8,4.8,0,0,0-.249-1.34,4.884,4.884,0,0,0-1.744-2.435c-1.779-1.3-5.172-1.927-5.835-2.039a7.9,7.9,0,0,1-1.834,1.083,7.721,7.721,0,0,1-.83.3c.886.341,2.757,1.012,2.776,1.018v9.131a.551.551,0,1,1-1.1,0v-8.3l-3.487-1.535c-.146.008-.294.012-.44.012a7.911,7.911,0,0,1-4.854-1.652c-.643.078-3.94.528-5.7,1.742A4.8,4.8,0,0,0,1.39,27.445,5.03,5.03,0,0,0,1.1,28.787v6.025a.551.551,0,1,1-1.1,0V28.926a7.353,7.353,0,0,1,.341-1.641,6.929,6.929,0,0,1,.671-1.473A5.294,5.294,0,0,1,2.23,24.418,12.388,12.388,0,0,1,7.439,22.5h1.38V19.462A7.534,7.534,0,0,1,7.812,17.6a8.032,8.032,0,0,1-.392-1.462c-.176-.14-.445-.365-.722-.632a6.729,6.729,0,0,1-.682-.753,2.587,2.587,0,0,1-.445-.815,2.36,2.36,0,0,1,.037-1.487,1.51,1.51,0,0,1,.455-.647V5.982a4.756,4.756,0,0,1,.575-1.8A4.384,4.384,0,0,1,7.98,2.915,8.8,8.8,0,0,1,10.855.524c1.615-.729,6.052-1.073,10.6,1.567s5.23,8.717,3.751,10.283A5.522,5.522,0,0,1,22.019,14c-.007.028-.014.055-.023.083a2.586,2.586,0,0,1-.445.815,6.729,6.729,0,0,1-.682.753c-.309.3-.608.542-.759.661a7.987,7.987,0,0,1-.362,1.293,7.54,7.54,0,0,1-1.007,1.861V22.5h1.247a22.971,22.971,0,0,1,2.813.781,9.448,9.448,0,0,1,2.676,1.359,5.193,5.193,0,0,1,1.253,1.435,6.156,6.156,0,0,1,.831,3.062v5.679a.551.551,0,1,1-1.1,0ZM9.922,22.557a6.608,6.608,0,0,0,3.307,1.169v-1.67a5.8,5.8,0,0,1-1.97-.55,6.312,6.312,0,0,1-1.337-.867ZM16.3,21.506a5.814,5.814,0,0,1-1.969.55v1.659A6.608,6.608,0,0,0,17.585,22.5h.053V20.64A6.318,6.318,0,0,1,16.3,21.506ZM10.126,10.071a6.505,6.505,0,0,0-1.858,4.607c0,3.4,2.472,6.158,5.512,6.158a5.217,5.217,0,0,0,3.858-1.764v-.034h.031a6.646,6.646,0,0,0-.326-9.053,15.885,15.885,0,0,0-3.426-.357A15.629,15.629,0,0,0,10.126,10.071Zm10.413,2.856c-.245.27-.113,1.821-.108,1.886a2.8,2.8,0,0,0,.688-1.2c.059-.558-.134-.688-.487-.725h-.011A.11.11,0,0,0,20.539,12.927ZM6.934,12.748c-.353.037-.545.168-.487.725a2.841,2.841,0,0,0,.688,1.2c0-.016.141-1.613-.108-1.887a.11.11,0,0,0-.083-.04ZM21.5,6.546V11.94a1.512,1.512,0,0,1,.462.652,2.038,2.038,0,0,1,.087.29,6.309,6.309,0,0,0,.838-.3,10.793,10.793,0,0,0-.267-1.876,3.444,3.444,0,0,0-.529-1A.648.648,0,0,1,23.229,9.1a5.721,5.721,0,0,1,.658,1.243,8.476,8.476,0,0,1,.239,1.436,2.355,2.355,0,0,0,.392-.506c.74-1.292.383-5.582-3.5-8.222a12.286,12.286,0,0,0-9.665-1.567A3.522,3.522,0,0,0,9.6,2.668a.96.96,0,0,1,.328.523,1.426,1.426,0,0,1-.137.688H8.336a2.468,2.468,0,0,0-.766.852,3.746,3.746,0,0,0-.291.8c.111-.061.224-.122.342-.18a11.433,11.433,0,0,1,2.738-.919l.148-.031a14.832,14.832,0,0,1,1.617-1.537,5.906,5.906,0,0,1,1.271-.595A.622.622,0,0,1,13.918,3.4a3.571,3.571,0,0,0-1.022.479c-.107.073-.223.161-.34.256.38-.025.766-.038,1.155-.038q.74,0,1.457.061A14.941,14.941,0,0,1,17.294,3.4a5.89,5.89,0,0,1,1.4-.024.622.622,0,0,1,.022,1.245,3.479,3.479,0,0,0-.908-.011,11.358,11.358,0,0,1,1.441.489l-.024-.045a8.63,8.63,0,0,1,1.845,0,5.934,5.934,0,0,1,1.318.482.624.624,0,0,1-.212,1.209.63.63,0,0,1-.212-.038,3.176,3.176,0,0,0-.555-.249C21.438,6.484,21.468,6.515,21.5,6.546Zm-1.749,5.347c.054.145.1.293.149.439a2.076,2.076,0,0,1,.119-.183,1.217,1.217,0,0,1,.378-.351v-.576a6.135,6.135,0,0,0-1.117-.622c-.068-.03-.138-.059-.209-.088A7.656,7.656,0,0,1,19.748,11.893ZM7.166,11.438v.218a1.217,1.217,0,0,1,.384.355,2.092,2.092,0,0,1,.143.224c.038-.117.078-.232.119-.342a7.712,7.712,0,0,1,.58-1.217A5.361,5.361,0,0,0,7.166,11.438Zm1.255-5.4a5.868,5.868,0,0,0-1.255.725v3.483q.279-.17.593-.327A11.433,11.433,0,0,1,10.5,9a16.815,16.815,0,0,1,6.7,0,11.419,11.419,0,0,1,2.738.919q.238.117.455.245v-3.4a5.868,5.868,0,0,0-1.255-.725,13.759,13.759,0,0,0-5.359-.973A13.759,13.759,0,0,0,8.42,6.034ZM20.946,34.816V31.905a.551.551,0,1,1,1.1,0v2.911a.551.551,0,0,1-1.1,0Zm-5.65-.488a.62.62,0,1,1,.62.623A.622.622,0,0,1,15.3,34.328Zm-4.271,0a.62.62,0,1,1,.62.623A.621.621,0,0,1,11.024,34.328ZM15.3,31.007a.62.62,0,1,1,.62.623A.622.622,0,0,1,15.3,31.007Zm-4.271,0a.62.62,0,1,1,.62.623A.621.621,0,0,1,11.024,31.007ZM15.3,27.686a.62.62,0,1,1,.62.623A.622.622,0,0,1,15.3,27.686Zm-4.271,0a.62.62,0,1,1,.62.623A.621.621,0,0,1,11.024,27.686Z" transform="translate(379.076 10.495)" fill="#d6d6d6"/>
      <g id="Эллипс_128" data-name="Эллипс 128" transform="translate(369 5)" fill="none" stroke="#d6d6d6" stroke-width="1">
        <circle cx="24" cy="24" r="24" stroke="none"/>
        <circle cx="24" cy="24" r="23.5" fill="none"/>
      </g>
    </g>
  </g>
</svg>
