<svg xmlns="http://www.w3.org/2000/svg" width="33.858" height="27.215" viewBox="0 0 33.858 27.215">
  <path id="Объединение_154" data-name="Объединение 154" d="M4.846,26.679H6.09a.856.856,0,0,0,0-1.713H3.578a12.893,12.893,0,0,1-2.025-4.91H6.121a.856.856,0,0,0,0-1.713H1.513a6.457,6.457,0,0,1,2.351-4.532,7.549,7.549,0,0,1,3.88-1.583L5.9,10.747a4.244,4.244,0,0,1-1.3.266,1.288,1.288,0,0,1-.788-.21A4.667,4.667,0,0,1,2.6,8.839a2.054,2.054,0,0,0-.266-.552,1.572,1.572,0,0,0-.587-.324c-.257-.086-.524-.175-1.189-.928a2.4,2.4,0,0,1-.527-1.95A3.4,3.4,0,0,1,.512,3.762a3.3,3.3,0,0,1,1-1.032,1.761,1.761,0,0,1,.961-.281,2.777,2.777,0,0,1,1.141.27,3.126,3.126,0,0,1,2.7-2.68C8.006-.173,8.986,2.19,8.986,2.19l-.047,9.975h0L8.986,2.19A5.486,5.486,0,0,1,9.643,1.1a3.466,3.466,0,0,1,.78-.752A1.887,1.887,0,0,1,11.47,0a1.562,1.562,0,0,1,.2.011A3.084,3.084,0,0,1,12.994.5a3.183,3.183,0,0,1,.964.982,2.594,2.594,0,0,1,.39,1.157,2.749,2.749,0,0,1,1.075-.252,1.722,1.722,0,0,1,.955.271,3.2,3.2,0,0,1,.991,1.022,3.343,3.343,0,0,1,.47,1.318,2.433,2.433,0,0,1-.544,1.955c-.67.76-.936.851-1.193.941a1.6,1.6,0,0,0-.588.33,2.1,2.1,0,0,0-.271.554,4.786,4.786,0,0,1-1.222,1.976,1.3,1.3,0,0,1-.788.218,4.179,4.179,0,0,1-1.3-.253l-1.862,1.506a6.374,6.374,0,0,1,5.21,2.863h-3.6a.856.856,0,1,0,0,1.712h4.31a9.845,9.845,0,0,1,.293,2.38,8.852,8.852,0,0,1-.26,2.187H11.871a.856.856,0,1,0,0,1.712h3.571c-1.507,3.461-4.8,6.246-6.629,6.333-.023,0-.045,0-.068,0C7.748,29.411,6.29,28.39,4.846,26.679ZM7.581,11.59l-.028-.062-1.638-2A5.3,5.3,0,0,1,4.539,8.291a3.7,3.7,0,0,1-.132-1.835h0a1.65,1.65,0,0,0,.013-.5,1.16,1.16,0,0,0-.284-.392,1.844,1.844,0,0,1-.5-.971,1.589,1.589,0,0,1-.064-.58,2,2,0,0,0-.816-.191,1.271,1.271,0,0,0-.688.2,2.353,2.353,0,0,0-.719.734A2.415,2.415,0,0,0,1,5.691a1.686,1.686,0,0,0,.379,1.38c.476.534.666.6.851.658a1.12,1.12,0,0,1,.42.23,1.429,1.429,0,0,1,.19.39h0a3.305,3.305,0,0,0,.865,1.393.936.936,0,0,0,.564.148A3.128,3.128,0,0,0,5.206,9.7Zm2.3-9.653a4.341,4.341,0,0,0-.514.854l-.04,8.582L10.85,8.317a3.531,3.531,0,0,0,.63-.125,1.457,1.457,0,0,0,.871-.571A3.844,3.844,0,0,0,12.6,5.8a1.642,1.642,0,0,1,.018-.486,1.334,1.334,0,0,1,.315-.436A2.082,2.082,0,0,0,13.486,3.8a1.9,1.9,0,0,0-.231-1.569,2.487,2.487,0,0,0-1.787-1.147,1.365,1.365,0,0,0-.16-.009A1.95,1.95,0,0,0,9.877,1.938ZM5.108,8.392v0Zm0-.007s0,0,0,0S5.1,8.384,5.1,8.384Zm-.009-.016v0Zm0-.006,0,0A0,0,0,0,0,5.092,8.362Zm0-.008,0-.005Zm0-.008,0,0Zm0-.005A4,4,0,0,1,4.8,6.63,3.988,3.988,0,0,0,5.081,8.34ZM4.715,5.294a1.519,1.519,0,0,0-.228-.306A1.527,1.527,0,0,1,4.715,5.294ZM3.7,3.524a0,0,0,0,1,0,0A0,0,0,0,0,3.7,3.524Zm0-.011s0,0,0,0S3.7,3.512,3.7,3.514Zm-.007-.026a0,0,0,0,1,0,0A0,0,0,0,0,3.693,3.488Zm0-.012a0,0,0,0,0,0,0A0,0,0,0,1,3.689,3.476ZM3.683,3.45v0Z" transform="translate(-0.001 16.676) rotate(-69)" fill="#b59472"/>
</svg>
