<svg xmlns="http://www.w3.org/2000/svg" width="22" height="22" viewBox="0 0 22 22"><g fill="none"><path d="M16.248,22H2.388a2.362,2.362,0,0,1-1.688-.7,2.4,2.4,0,0,1-.7-1.7V2.407A2.4,2.4,0,0,1,.7.7,2.362,2.362,0,0,1,2.388,0H16.929L22,4.955V19.594a2.4,2.4,0,0,1-.7,1.7,2.362,2.362,0,0,1-1.688.7Zm4.184-1.547V5.539l-4.1-3.991H15.3A2,2,0,0,1,15.349,2V5.391a2,2,0,0,1-2,2h-4.7a2,2,0,0,1-2-2V2A2,2,0,0,1,6.7,1.547H1.527V20.453H3.633A2,2,0,0,1,3.581,20V15.234a2,2,0,0,1,2-2H16.248a2,2,0,0,1,2,2V20a2,2,0,0,1-.052.453Zm-3.549,0V14.61H4.945v5.843ZM8.015,1.667V5.016a1,1,0,0,0,1,1h4.139a1,1,0,0,0,1-1V1.667a1,1,0,0,0-.007-.12H8.023A1,1,0,0,0,8.015,1.667Z" stroke="none"/><path d="M 19.61190032958984 21.99960136413574 L 2.387700796127319 21.99960136413574 C 1.749600648880005 21.99960136413574 1.150200724601746 21.7494010925293 0.6993007063865662 21.29490089416504 C 0.2484006881713867 20.84040069580078 6.820678777330613e-07 20.23649978637695 6.820678777330613e-07 19.59390068054199 L 6.820678777330613e-07 2.406600713729858 C 6.820678777330613e-07 1.763100624084473 0.2484006881713867 1.159200668334961 0.6993007063865662 0.7047007083892822 C 1.150200724601746 0.2502006888389587 1.749600648880005 6.820678777330613e-07 2.387700796127319 6.820678777330613e-07 L 16.92900085449219 6.820678777330613e-07 L 21.99960136413574 4.955400466918945 L 21.99960136413574 19.59390068054199 C 21.99960136413574 20.23649978637695 21.75120162963867 20.84040069580078 21.30030059814453 21.29490089416504 C 20.84940147399902 21.7494010925293 20.25 21.99960136413574 19.61190032958984 21.99960136413574 Z M 5.5809006690979 13.23450088500977 L 16.24769973754883 13.23450088500977 C 17.35110092163086 13.23450088500977 18.24750137329102 14.13180065155029 18.24750137329102 15.23430061340332 L 18.24750137329102 19.99980163574219 C 18.24750137329102 20.15544128417969 18.2296199798584 20.30698013305664 18.19583129882812 20.45250129699707 L 20.43180084228516 20.45250129699707 L 20.43180084228516 5.538600444793701 L 16.3341007232666 1.54710066318512 L 15.29689025878906 1.54710066318512 C 15.33071041107178 1.692620635032654 15.34860038757324 1.84415066242218 15.34860038757324 1.999800682067871 L 15.34860038757324 5.391000747680664 C 15.34860038757324 6.493500709533691 14.45130062103271 7.390800476074219 13.34880065917969 7.390800476074219 L 8.650800704956055 7.390800476074219 C 7.548300743103027 7.390800476074219 6.651000499725342 6.493500709533691 6.651000499725342 5.391000747680664 L 6.651000499725342 1.999800682067871 C 6.651000499725342 1.84415066242218 6.668880462646484 1.692620635032654 6.702700614929199 1.54710066318512 L 1.527300715446472 1.54710066318512 L 1.527300715446472 20.45250129699707 L 3.632800579071045 20.45250129699707 C 3.598990678787231 20.30698013305664 3.581100702285767 20.15544128417969 3.581100702285767 19.99980163574219 L 3.581100702285767 15.23430061340332 C 3.581100702285767 14.13180065155029 4.478400707244873 13.23450088500977 5.5809006690979 13.23450088500977 Z M 4.94550085067749 14.60970115661621 L 4.94550085067749 20.45250129699707 L 16.88310050964355 20.45250129699707 L 16.88310050964355 14.60970115661621 L 4.94550085067749 14.60970115661621 Z M 8.022590637207031 1.54710066318512 C 8.017880439758301 1.586360692977905 8.015400886535645 1.626290678977966 8.015400886535645 1.666800737380981 L 8.015400886535645 5.015700817108154 C 8.015400886535645 5.567400455474854 8.464500427246094 6.015600681304932 9.015300750732422 6.015600681304932 L 13.15440082550049 6.015600681304932 C 13.70610046386719 6.015600681304932 14.15520095825195 5.567400455474854 14.15520095825195 5.015700817108154 L 14.15520095825195 1.666800737380981 C 14.15520095825195 1.626290678977966 14.15271091461182 1.586360692977905 14.14801025390625 1.54710066318512 L 8.022590637207031 1.54710066318512 Z" stroke="none" fill="#b59472"/></g></svg>