<svg xmlns="http://www.w3.org/2000/svg" width="19.733" height="23.745" viewBox="0 0 19.733 23.745">
  <path id="Объединение_72" data-name="Объединение 72" d="M5.462,23.745a3,3,0,0,1-3-3V6.384h2.1V19.7a2,2,0,0,0,2,2h9.634a2,2,0,0,0,2-2V6.384h2.1v14.36a3,3,0,0,1-3,3Zm10.849-4c0-.028,0-.056,0-.085V8.494a.833.833,0,0,1,1.33-.669v11.92Zm-5,0c0-.028,0-.056,0-.085V8.494a.833.833,0,1,1,1.666,0V19.66c0,.029,0,.057,0,.085Zm-5,0c0-.028,0-.056,0-.085V8.494a.833.833,0,0,1,1.667,0V19.66c0,.029,0,.057,0,.085ZM2.33,5.108a.851.851,0,1,1,0-1.7H6.307V3a3,3,0,0,1,3-3h4.487a3,3,0,0,1,3,3v.406H20.36a.851.851,0,1,1,0,1.7Zm5.655-1.7h7.132a2,2,0,0,0-1.9-1.364H9.88A2,2,0,0,0,7.985,3.406Z" transform="translate(-1.479)" fill="#b59472"/>
</svg>
