<svg xmlns="http://www.w3.org/2000/svg" width="24" height="21" viewBox="0 0 24 21"><path d="M16.375,21H7.625a5.006,5.006,0,0,1-5-5V13.869A2.819,2.819,0,0,1,0,11.063c0-.084,0-.17.012-.262A2.185,2.185,0,0,1,0,10.58V10.25a2,2,0,0,1,2-2h.625V6.875c0-.041,0-.084,0-.125H21.373v1.5H22a2,2,0,0,1,2,2v.329a2.185,2.185,0,0,1-.012.221c.008.092.012.178.012.262a2.818,2.818,0,0,1-2.626,2.806V16A5.005,5.005,0,0,1,16.375,21ZM3.84,7.636v8.409a4,4,0,0,0,4,4h8.32a4,4,0,0,0,4-4V7.636ZM21.374,9.459v3.5a1.6,1.6,0,0,0,1.606-1.6V9.459Zm-20.354,0v1.894a1.6,1.6,0,0,0,1.6,1.6l0-3.5ZM21.587,5.51H2.395c-.32,0-.5-.217-.506-.6-.013-.788.743-2.125,1.628-2.163H7.065a2.5,2.5,0,0,1-.019-.31A2.44,2.44,0,0,1,9.483,0h5.15A2.44,2.44,0,0,1,17.07,2.437a2.5,2.5,0,0,1-.02.31h3.455c.853.039,1.624,1.384,1.606,2.173C22.1,5.3,21.917,5.51,21.587,5.51ZM3.357,3.818a.477.477,0,0,0,0,.955H20.642a.477.477,0,1,0,0-.955ZM9.836,1.5a1,1,0,0,0-1,1v.247H15.28V2.5a1,1,0,0,0-1-1Z" transform="translate(0)" fill="#d6d6d6"/></svg>