<svg xmlns="http://www.w3.org/2000/svg" width="19" height="24.098" viewBox="0 0 19 24.098"><path d="M9.708,24.1a10.9,10.9,0,0,1-5.452-1.43,8.137,8.137,0,0,1-3.6-4.237,8.948,8.948,0,0,1,.295-7.4,18.59,18.59,0,0,1,3.864-4.8c.291-.285.565-.554.815-.811A7.725,7.725,0,0,0,7.9,0l.006,0c.41.2,4.047,2.02,5.43,4.44A6.939,6.939,0,0,1,14.1,8.306a9.107,9.107,0,0,1-.337,1.942A2.983,2.983,0,0,0,15.46,9.2,7.742,7.742,0,0,0,16.5,6.7l.006.008a21.633,21.633,0,0,1,1.961,4.863,14.149,14.149,0,0,1,.506,4.5,8.051,8.051,0,0,1-4.944,7.141A10.749,10.749,0,0,1,9.708,24.1Zm.1-15.488a12.837,12.837,0,0,0-5.062,3.647c-1.666,2.273-2.139,6.13,0,8.4a5.506,5.506,0,0,0,4.084,1.6,6.715,6.715,0,0,0,4.086-1.33c1.144-.9,1.21-2.843,1.064-4.316a17.132,17.132,0,0,0-.6-3.012s-.162.32-.466,1.152c-.284.777-.7.8-.748.8h0a7.727,7.727,0,0,1-1.7-2.836A13.339,13.339,0,0,1,9.812,8.61Z" transform="translate(0.003)" fill="#d6d6d6"/></svg>