<svg xmlns="http://www.w3.org/2000/svg" width="19.277" height="21.015" viewBox="0 0 19.277 21.015"><path d="M1.106,20.531c-.013-.028-.024-.056-.034-.084l-.9-1.168A.83.83,0,0,1,.341,18.1a.87.87,0,0,1,1.2.166l.647.841,3.024-1.382a.866.866,0,0,1,1.139.407.833.833,0,0,1-.415,1.117L2.246,20.937a.874.874,0,0,1-.362.078A.858.858,0,0,1,1.106,20.531Zm7.217-.358a.841.841,0,1,1,0-1.681H18.437a.841.841,0,0,1,0,1.681ZM1.106,14.648c-.013-.027-.024-.055-.034-.083L.173,13.4a.83.83,0,0,1,.168-1.177.87.87,0,0,1,1.2.166l.647.841,3.024-1.382a.866.866,0,0,1,1.139.407.833.833,0,0,1-.415,1.117L2.246,15.053a.866.866,0,0,1-1.139-.406Zm7.217-.358a.841.841,0,0,1,0-1.681H18.437a.841.841,0,0,1,0,1.681ZM1.106,8.765c-.013-.027-.024-.055-.034-.083l-.9-1.169A.83.83,0,0,1,.341,6.336a.87.87,0,0,1,1.2.166l.647.841L5.214,5.961a.866.866,0,0,1,1.139.407.833.833,0,0,1-.415,1.117L2.246,9.171a.866.866,0,0,1-1.139-.406Zm7.217-.358a.841.841,0,0,1,0-1.681H18.437a.841.841,0,0,1,0,1.681ZM1.106,2.883c-.013-.027-.024-.055-.034-.083l-.9-1.169A.83.83,0,0,1,.341.454a.87.87,0,0,1,1.2.166l.647.842L5.214.078A.866.866,0,0,1,6.353.485.833.833,0,0,1,5.938,1.6L2.246,3.289a.866.866,0,0,1-1.139-.406Zm7.217-.358a.841.841,0,0,1,0-1.681H18.437a.841.841,0,0,1,0,1.681Z" transform="translate(0 0)" fill="#d6d6d6"/></svg>